<svg xmlns="http://www.w3.org/2000/svg" viewBox="0 0 280 280" fill="none">
  <!-- Onboarding Step 2: Memory — Journal with pages turning, marginalia -->
  <rect width="280" height="280" fill="#FAF9F6"/>

  <!-- Stacked pages behind (depth) -->
  <rect x="62" y="58" width="156" height="190" rx="2" fill="none" stroke="#D4C5A9" stroke-width="0.5" opacity="0.3"/>
  <rect x="58" y="54" width="156" height="190" rx="2" fill="none" stroke="#D4C5A9" stroke-width="0.5" opacity="0.2"/>

  <!-- Main journal page -->
  <rect x="66" y="62" width="148" height="186" rx="2" fill="#FAF9F6" stroke="#D4C5A9" stroke-width="1.2"/>

  <!-- Red margin line -->
  <line x1="96" y1="66" x2="96" y2="244" stroke="#A0768C" stroke-width="0.5" opacity="0.25"/>

  <!-- Ruled lines -->
  <line x1="80" y1="86" x2="200" y2="86" stroke="#D4C5A9" stroke-width="0.4" opacity="0.3"/>
  <line x1="80" y1="102" x2="200" y2="102" stroke="#D4C5A9" stroke-width="0.4" opacity="0.3"/>
  <line x1="80" y1="118" x2="200" y2="118" stroke="#D4C5A9" stroke-width="0.4" opacity="0.3"/>
  <line x1="80" y1="134" x2="200" y2="134" stroke="#D4C5A9" stroke-width="0.4" opacity="0.3"/>
  <line x1="80" y1="150" x2="200" y2="150" stroke="#D4C5A9" stroke-width="0.4" opacity="0.3"/>
  <line x1="80" y1="166" x2="200" y2="166" stroke="#D4C5A9" stroke-width="0.4" opacity="0.3"/>
  <line x1="80" y1="182" x2="200" y2="182" stroke="#D4C5A9" stroke-width="0.4" opacity="0.3"/>
  <line x1="80" y1="198" x2="200" y2="198" stroke="#D4C5A9" stroke-width="0.4" opacity="0.3"/>
  <line x1="80" y1="214" x2="200" y2="214" stroke="#D4C5A9" stroke-width="0.4" opacity="0.3"/>

  <!-- Handwritten text lines — varying lengths -->
  <path d="M100 85 Q120 83 145 85 Q165 87 185 84" stroke="#6B5B95" stroke-width="0.7" opacity="0.25" fill="none"/>
  <path d="M100 101 Q130 99 170 101" stroke="#6B5B95" stroke-width="0.7" opacity="0.25" fill="none"/>
  <path d="M100 117 Q115 115 140 117 Q160 119 190 116" stroke="#6B5B95" stroke-width="0.7" opacity="0.25" fill="none"/>
  <path d="M100 133 Q125 131 155 133" stroke="#6B5B95" stroke-width="0.7" opacity="0.25" fill="none"/>
  <path d="M100 149 Q135 147 175 149 Q185 150 195 148" stroke="#6B5B95" stroke-width="0.7" opacity="0.25" fill="none"/>
  <path d="M100 165 Q120 163 148 165" stroke="#6B5B95" stroke-width="0.7" opacity="0.25" fill="none"/>

  <!-- Marginalia — amethyst annotations in the margin -->
  <path d="M74 100 Q78 96 82 100" stroke="#6B5B95" stroke-width="0.8" opacity="0.5" fill="none"/>
  <circle cx="78" cy="134" r="3" stroke="#6B5B95" stroke-width="0.6" fill="none" opacity="0.4"/>
  <path d="M72 164 L84 164" stroke="#6B5B95" stroke-width="0.6" opacity="0.4"/>
  <path d="M74 168 L82 168" stroke="#6B5B95" stroke-width="0.6" opacity="0.3"/>

  <!-- Page turning — curled corner -->
  <path d="M214 62 L214 92 Q214 62 190 62" fill="#FAF9F6" stroke="#D4C5A9" stroke-width="0.8"/>
  <path d="M214 92 Q210 78 190 62" fill="none" stroke="#D4C5A9" stroke-width="0.5" opacity="0.3"/>
</svg>
